<svg width="79" height="79" viewBox="0 0 79 79" fill="none" xmlns="http://www.w3.org/2000/svg">
<g id="woman-biking-medium-light-skin-tone-svgrepo-com 2" clip-path="url(#clip0_39_118)">
<path id="Vector" d="M27.1563 13.8974C24.9618 16.0919 28.5278 15.3611 30.7222 19.75C32.9167 24.1389 39.5 21.9444 37.3056 17.5555C36.8425 16.6273 35.0146 15.1504 33.507 14.0357C33.507 14.0357 34.7929 12.5281 34.1061 10.9283C33.4192 9.32857 27.1563 13.8974 27.1563 13.8974Z" fill="#F3D2A2"/>
<path id="Vector_2" d="M26.2851 5.03845C25.4775 5.05355 24.681 5.22827 23.9412 5.55257C23.2015 5.87686 22.5333 6.34432 21.975 6.92801C21.4167 7.51169 20.9794 8.20007 20.6884 8.95349C20.3973 9.70691 20.2582 10.5105 20.279 11.3179C20.2999 12.1253 20.4803 12.9206 20.8098 13.658C21.1394 14.3954 21.6116 15.0603 22.1992 15.6144C22.7869 16.1685 23.4783 16.6009 24.2338 16.8866C24.9893 17.1723 25.7938 17.3057 26.6011 17.2791C28.2164 17.2258 29.7452 16.5361 30.854 15.3601C31.9628 14.1842 32.5616 12.6176 32.5199 11.0019C32.4782 9.38619 31.7993 7.85253 30.6314 6.73538C29.4634 5.61824 27.901 5.00825 26.2851 5.03845Z" fill="#F3D2A2"/>
<path id="Vector_3" d="M43.7857 8.4574C41.9094 8.97748 39.636 9.69067 36.1907 7.17804C33.7308 5.38298 31.4354 4.78609 26.6032 5.84381C21.4726 6.96737 17.8671 10.7462 21.5121 11.7886C23.1031 12.2428 24.2486 11.635 26.6493 11.3848C30.1714 11.0183 31.6021 13.994 35.0189 13.9918C41.7032 13.983 46.5858 7.68056 43.7857 8.4574Z" fill="black"/>
<path id="Vector_4" d="M41.6944 35.1111C41.6944 35.1111 35.1111 39.5 35.1111 41.6944C35.1111 43.8889 43.8889 50.4722 46.0833 52.6666C48.2778 54.8611 52.6666 54.8611 50.4722 50.4722C48.2778 46.0833 41.6944 35.1111 41.6944 35.1111Z" fill="#E2C196"/>
<path id="Vector_5" d="M45.2802 50.5183C45.2802 50.5183 47.8543 52.2497 49.5857 49.6734C51.3171 47.0972 52.5811 53.5598 52.5811 53.5598C52.5811 53.5598 46.9655 59.1315 42.66 59.9764C38.3545 60.8212 40.0859 58.2449 41.8152 55.6709L45.2802 50.5183Z" fill="#A0041E"/>
<path id="Vector_6" d="M15.3611 48.2778C13.3439 48.2778 11.3464 48.6751 9.48267 49.4471C7.61897 50.219 5.92558 51.3505 4.49917 52.7769C3.07275 54.2033 1.94126 55.8967 1.16929 57.7604C0.397327 59.6241 0 61.6216 0 63.6389C0 65.6561 0.397327 67.6536 1.16929 69.5173C1.94126 71.381 3.07275 73.0744 4.49917 74.5008C5.92558 75.9272 7.61897 77.0587 9.48267 77.8307C11.3464 78.6027 13.3439 79 15.3611 79C19.4351 79 23.3423 77.3816 26.2231 74.5008C29.1038 71.6201 30.7222 67.7129 30.7222 63.6389C30.7222 59.5649 29.1038 55.6577 26.2231 52.7769C23.3423 49.8962 19.4351 48.2778 15.3611 48.2778ZM15.3611 74.6111C12.4511 74.6111 9.66027 73.4551 7.60258 71.3974C5.54489 69.3397 4.38889 66.5489 4.38889 63.6389C4.38889 60.7289 5.54489 57.938 7.60258 55.8803C9.66027 53.8227 12.4511 52.6667 15.3611 52.6667C18.2711 52.6667 21.062 53.8227 23.1196 55.8803C25.1773 57.938 26.3333 60.7289 26.3333 63.6389C26.3333 66.5489 25.1773 69.3397 23.1196 71.3974C21.062 73.4551 18.2711 74.6111 15.3611 74.6111ZM63.6389 48.2778C59.5646 48.2781 55.6573 49.8969 52.7765 52.778C49.8957 55.6592 48.2775 59.5668 48.2778 63.6411C48.2781 67.7154 49.8969 71.6227 52.778 74.5035C55.6592 77.3842 59.5668 79.0025 63.6411 79.0022C65.6585 79.002 67.6561 78.6045 69.5199 77.8324C71.3836 77.0602 73.0771 75.9285 74.5035 74.5019C75.9299 73.0753 77.0614 71.3817 77.8332 69.5178C78.6051 67.6539 79.0023 65.6563 79.0022 63.6389C79.0021 61.6215 78.6046 59.6239 77.8324 57.7601C77.0602 55.8963 75.9286 54.2029 74.5019 52.7765C73.0753 51.3501 71.3817 50.2186 69.5178 49.4467C67.654 48.6748 65.6563 48.2776 63.6389 48.2778ZM63.6389 74.6111C60.7289 74.6111 57.9381 73.4551 55.8804 71.3974C53.8227 69.3397 52.6667 66.5489 52.6667 63.6389C52.6667 60.7289 53.8227 57.938 55.8804 55.8803C57.9381 53.8227 60.7289 52.6667 63.6389 52.6667C66.5489 52.6667 69.3397 53.8227 71.3974 55.8803C73.4551 57.938 74.6111 60.7289 74.6111 63.6389C74.6111 66.5489 73.4551 69.3397 71.3974 71.3974C69.3397 73.4551 66.5489 74.6111 63.6389 74.6111Z" fill="black"/>
<g id="Group">
<path id="Vector_7" d="M48.2778 43.8888C48.2778 42.6753 47.2157 41.6944 45.9012 41.6944H22.1266C20.8143 41.6944 19.75 42.6753 19.75 43.8888C19.75 45.1024 20.8143 46.0833 22.1266 46.0833H45.899C47.2157 46.0833 48.2778 45.1024 48.2778 43.8888ZM65.8333 63.6388C65.8333 63.0568 65.6021 62.4987 65.1906 62.0871C64.7791 61.6756 64.2209 61.4444 63.6389 61.4444H39.5C38.918 61.4444 38.3598 61.6756 37.9483 62.0871C37.5368 62.4987 37.3056 63.0568 37.3056 63.6388C37.3056 64.2208 37.5368 64.779 37.9483 65.1905C38.3598 65.6021 38.918 65.8333 39.5 65.8333H63.6389C64.2209 65.8333 64.7791 65.6021 65.1906 65.1905C65.6021 64.779 65.8333 64.2208 65.8333 63.6388Z" fill="#AAB8C2"/>
<path id="Vector_8" d="M46.5748 37.3055L37.4327 62.9015C37.2372 63.4498 37.2674 64.0533 37.5168 64.5792C37.7662 65.1052 38.2143 65.5105 38.7626 65.706C39.3108 65.9016 39.9143 65.8713 40.4402 65.622C40.9662 65.3726 41.3715 64.9245 41.5671 64.3762L51.2358 37.3055H46.5748Z" fill="#AAB8C2"/>
<path id="Vector_9" d="M63.6411 65.8333C62.9169 65.8333 62.2059 65.4734 61.7868 64.8173L46.4257 40.6784C46.2709 40.4352 46.1656 40.1638 46.1157 39.8799C46.0658 39.596 46.0723 39.305 46.1349 39.0236C46.1974 38.7422 46.3148 38.4759 46.4803 38.2398C46.6458 38.0038 46.8561 37.8026 47.0993 37.6479C47.3426 37.4931 47.6139 37.3878 47.8978 37.3379C48.1818 37.288 48.4727 37.2945 48.7541 37.3571C49.0355 37.4196 49.3019 37.537 49.5379 37.7025C49.774 37.868 49.9751 38.0783 50.1299 38.3215L65.491 62.4604C65.7021 62.7921 65.8203 63.1744 65.8331 63.5673C65.8459 63.9603 65.7529 64.3494 65.5638 64.6941C65.3748 65.0389 65.0966 65.3264 64.7583 65.5268C64.4201 65.7272 64.0342 65.8331 63.6411 65.8333ZM41.6944 56.4718L23.2896 42.1552C23.0627 41.9724 22.8016 41.8366 22.5216 41.7558C22.2416 41.675 21.9484 41.6507 21.6589 41.6845C21.3695 41.7182 21.0896 41.8092 20.8357 41.9523C20.5818 42.0954 20.359 42.2875 20.1802 42.5176C20.0014 42.7478 19.8702 43.0112 19.7943 43.2925C19.7184 43.5739 19.6992 43.8676 19.738 44.1564C19.7769 44.4452 19.8728 44.7234 20.0203 44.9747C20.1678 45.2261 20.3638 45.4455 20.597 45.6203L40.347 60.9814C40.7305 61.2828 41.2045 61.4459 41.6922 61.4444L41.6944 56.4718Z" fill="#AAB8C2"/>
<path id="Vector_10" d="M15.3611 65.8333C15.0133 65.8332 14.6705 65.7504 14.361 65.5917C14.0515 65.4331 13.7842 65.2031 13.581 64.9209C13.3778 64.6386 13.2446 64.3121 13.1924 63.9683C13.1402 63.6244 13.1705 63.2731 13.2807 62.9432L19.3637 44.6942L11.8522 39.0589C11.6216 38.886 11.4274 38.6694 11.2806 38.4214C11.1337 38.1734 11.0372 37.899 10.9964 37.6137C10.9141 37.0375 11.0641 36.4523 11.4133 35.9867C11.7625 35.5211 12.2823 35.2133 12.8585 35.131C13.4346 35.0486 14.0199 35.1986 14.4855 35.5478L24.5295 43.0813L17.4458 64.3323C17.2989 64.7691 17.0188 65.1488 16.6448 65.4181C16.2709 65.6873 15.8219 65.8326 15.3611 65.8333Z" fill="#AAB8C2"/>
</g>
<path id="Vector_11" d="M57.896 41.6944C57.8307 41.6944 57.7654 41.69 57.7007 41.6813L45.2538 40.1276C44.8489 40.094 44.4733 39.9031 44.2074 39.5958C43.9416 39.2885 43.8067 38.8893 43.8317 38.4838C43.8567 38.0783 44.0395 37.6987 44.341 37.4263C44.6425 37.154 45.0387 37.0106 45.4447 37.0269C45.5347 37.0269 54.3695 36.9874 58.5872 34.1763C58.8574 33.9974 59.1765 33.9068 59.5004 33.917C59.8243 33.9272 60.1371 34.0377 60.3954 34.2333C60.652 34.4312 60.8407 34.7039 60.9355 35.0137C61.0302 35.3235 61.0263 35.6551 60.9243 35.9626L59.3684 40.6301C59.2666 40.9402 59.0694 41.2101 58.8049 41.4012C58.5404 41.5924 58.2223 41.695 57.896 41.6944ZM24.1388 39.5H13.1666C12.5846 39.5 12.0264 39.2688 11.6149 38.8573C11.2034 38.4457 10.9722 37.8876 10.9722 37.3056C10.9722 36.7236 11.2034 36.1654 11.6149 35.7539C12.0264 35.3423 12.5846 35.1111 13.1666 35.1111H24.1388C24.7208 35.1111 25.279 35.3423 25.6905 35.7539C26.1021 36.1654 26.3333 36.7236 26.3333 37.3056C26.3333 37.8876 26.1021 38.4457 25.6905 38.8573C25.279 39.2688 24.7208 39.5 24.1388 39.5Z" fill="black"/>
<path id="Vector_12" d="M48.2756 28.5278L39.5 35.1111L46.0833 41.6944L48.2756 28.5278Z" fill="#A0041E"/>
<path id="Vector_13" d="M43.8867 37.3056C43.8867 37.3056 39.4978 43.8889 39.4978 46.0834C39.4978 48.2778 41.6922 54.8611 41.6922 61.4445C41.6922 68.0278 46.0811 68.0278 46.0811 65.8334C46.0811 63.6389 49.5505 53.9417 46.0811 50.4722C43.8867 48.2778 50.47 41.6945 50.47 41.6945L43.8867 37.3056ZM34.4198 29.1796L28.3851 27.4591C27.4042 31.7514 21.7513 37.3034 19.75 37.3034C17.5555 37.3034 15.3611 37.3034 15.3611 39.4978C15.3611 41.6923 15.3611 41.6923 19.75 41.6923C24.1389 41.6923 28.5277 37.3034 30.7222 35.1089C32.1486 33.6826 33.5947 31.2533 34.4198 29.1796Z" fill="#F3D2A2"/>
<path id="Vector_14" d="M48.2756 28.5278L41.6923 37.3056L50.47 43.8889C50.47 43.8889 61.4423 32.9167 61.4423 28.5278C61.4423 24.1389 54.8589 21.9445 54.8589 21.9445L48.2756 28.5278Z" fill="#BE1931"/>
<path id="Vector_15" d="M46.0811 15.3589C39.4978 13.1645 33.8252 14.4504 30.72 17.5533C28.5256 19.7478 28.5256 21.9422 28.5256 26.3311C28.5256 26.7173 28.4597 27.1255 28.3654 27.5381L34.3869 29.2585C34.8302 28.1415 35.1111 27.0992 35.1111 26.3311C35.1111 24.1367 37.3055 24.1367 39.5 26.3311C41.6944 28.5256 43.8889 30.72 46.0833 30.72C48.2778 30.72 59.25 21.9422 59.25 21.9422C52.6645 19.7478 50.2462 16.7458 46.0811 15.3589ZM41.6944 63.6389C41.6944 63.6389 43.8889 65.8333 46.0833 63.6389C48.2778 61.4444 48.2778 68.0278 48.2778 68.0278C48.2778 68.0278 41.6944 72.4167 37.3055 72.4167C32.9167 72.4167 35.1111 70.2222 37.3055 68.0278L41.6944 63.6389ZM24.1389 4.38888C28.5278 2.19443 37.3055 4.38888 32.9167 8.77776C30.7222 10.9722 17.5555 13.1667 17.5555 13.1667C17.5555 10.9722 19.75 6.58332 24.1389 4.38888Z" fill="#DD2E44"/>
</g>
<defs>
<clipPath id="clip0_39_118">
<rect width="79" height="79" fill="white"/>
</clipPath>
</defs>
</svg>
