<svg width="52" height="52" viewBox="0 0 52 52" fill="none" xmlns="http://www.w3.org/2000/svg">
<g id="wind-svgrepo-com (1) 1">
<rect width="52" height="52" fill="#B72B2B"/>
<path id="Vector" fill-rule="evenodd" clip-rule="evenodd" d="M13.5417 11.9167C13.5417 8.02767 16.6944 4.875 20.5834 4.875C24.4723 4.875 27.625 8.02765 27.625 11.9167C27.625 15.8057 24.4723 18.9583 20.5834 18.9583H6.50004C5.60259 18.9583 4.87504 18.2308 4.87504 17.3333C4.87504 16.4359 5.60259 15.7083 6.50004 15.7083H20.5834C22.6775 15.7083 24.375 14.0108 24.375 11.9167C24.375 9.82258 22.6775 8.125 20.5834 8.125C18.4893 8.125 16.7917 9.82258 16.7917 11.9167V12.6905C16.7917 13.5879 16.0642 14.3155 15.1667 14.3155C14.2693 14.3155 13.5417 13.5879 13.5417 12.6905V11.9167ZM30.875 16.25C30.875 11.1644 34.9978 7.04167 40.0834 7.04167C45.169 7.04167 49.2917 11.1644 49.2917 16.25C49.2917 21.3356 45.169 25.4583 40.0834 25.4583H4.33337C3.43592 25.4583 2.70837 24.7308 2.70837 23.8333C2.70837 22.9359 3.43592 22.2083 4.33337 22.2083H40.0834C43.3741 22.2083 46.0417 19.5407 46.0417 16.25C46.0417 12.9593 43.3741 10.2917 40.0834 10.2917C36.7926 10.2917 34.125 12.9593 34.125 16.25V17.3333C34.125 18.2308 33.3975 18.9583 32.5 18.9583C31.6026 18.9583 30.875 18.2308 30.875 17.3333V16.25ZM7.04171 30.3333C7.04171 29.4359 7.76925 28.7083 8.66671 28.7083H40.0834C45.169 28.7083 49.2917 32.8311 49.2917 37.9167C49.2917 43.0023 45.169 47.125 40.0834 47.125C34.9978 47.125 30.875 43.0023 30.875 37.9167V36.8333C30.875 35.9359 31.6026 35.2083 32.5 35.2083C33.3975 35.2083 34.125 35.9359 34.125 36.8333V37.9167C34.125 41.2074 36.7926 43.875 40.0834 43.875C43.3741 43.875 46.0417 41.2074 46.0417 37.9167C46.0417 34.6259 43.3741 31.9583 40.0834 31.9583H8.66671C7.76925 31.9583 7.04171 31.2308 7.04171 30.3333Z" fill="#D1D1D1"/>
</g>
</svg>
