<svg width="226" height="226" viewBox="0 0 226 226" fill="none" xmlns="http://www.w3.org/2000/svg">
<g id="partly-cloudy-svgrepo-com 2">
<path id="Vector" d="M84.75 18.8356C84.75 13.635 88.9659 9.41895 94.1667 9.41895C99.3675 9.41895 103.583 13.635 103.583 18.8356V28.2523C103.583 33.453 99.3675 37.6689 94.1667 37.6689C88.9659 37.6689 84.75 33.453 84.75 28.2523V18.8356Z" fill="#D1D1D1"/>
<path id="Vector_2" fill-rule="evenodd" clip-rule="evenodd" d="M131.839 65.9214C123.249 54.484 109.571 47.0856 94.1666 47.0856C68.1632 47.0856 47.0832 68.1655 47.0832 94.1685C47.0832 97.4766 47.4244 100.706 48.0734 103.821C44.7502 105.141 41.6689 106.768 38.8374 108.683C26.5251 117.011 20.2373 129.91 19.046 142.967C16.7241 168.419 34.082 197.752 67.5839 197.752H174.704C187.909 197.752 198.612 193.606 206.024 186.347C213.384 179.139 216.756 169.568 216.577 160.171C216.265 143.86 205.301 127.938 186.236 123.322C188.924 99.149 172.062 77.7494 151.533 69.6408C145.365 67.2045 138.677 65.8535 131.839 65.9214ZM110.414 71.1181C105.821 67.8752 100.216 65.9701 94.1666 65.9701C78.5928 65.9701 65.9677 78.5952 65.9677 94.1685C65.9677 96.1291 66.1677 98.0425 66.5484 99.8901C71.5803 99.5925 76.9567 99.8091 82.6634 100.578C89.9225 86.3213 99.4954 76.5855 110.414 71.1181ZM97.1563 114.033C103.642 98.842 112.09 90.9526 120.073 87.3765C128.081 83.7894 136.72 84.0389 144.614 87.1573C161.135 93.6828 171.528 111.042 166.212 127.165C164.018 133.82 168.9 140.625 175.783 140.84C190.586 141.305 197.571 151.335 197.746 160.531C197.836 165.204 196.181 169.626 192.847 172.892C189.563 176.109 183.904 178.919 174.704 178.919H67.5839C47.7066 178.919 36.239 161.805 37.8015 144.678C38.5526 136.445 42.3845 129.021 49.3891 124.283C56.4065 119.537 67.9087 116.624 85.5494 120.149C90.3329 121.105 95.2175 118.576 97.1563 114.033Z" fill="#D1D1D1"/>
<path id="Vector_3" d="M9.41675 94.1685C9.41675 99.3694 13.6328 103.585 18.8334 103.585H28.2501C33.4507 103.585 37.6667 99.3694 37.6667 94.1685C37.6667 88.9683 33.4507 84.7523 28.2501 84.7523H18.8334C13.6328 84.7523 9.41675 88.9683 9.41675 94.1685Z" fill="#D1D1D1"/>
<path id="Vector_4" d="M34.2392 47.5599C30.5619 43.8825 30.5619 37.9202 34.2392 34.2428C37.9167 30.5653 43.879 30.5653 47.5564 34.2428L54.215 40.9014C57.8925 44.5788 57.8925 50.5412 54.215 54.2186C50.5376 57.896 44.5753 57.896 40.8979 54.2186L34.2392 47.5599Z" fill="#D1D1D1"/>
<path id="Vector_5" d="M134.118 40.8992C130.441 44.5766 130.441 50.539 134.118 54.2164C137.796 57.8938 143.758 57.8938 147.436 54.2164L154.094 47.5578C157.771 43.8803 157.771 37.9181 154.094 34.2406C150.416 30.5632 144.454 30.5632 140.777 34.2406L134.118 40.8992Z" fill="#D1D1D1"/>
</g>
</svg>
