<svg width="52" height="52" viewBox="0 0 52 52" fill="none" xmlns="http://www.w3.org/2000/svg">
<g id="visibility-eye-svgrepo-com 1">
<g id="Group">
<g id="Group_2">
<path id="Vector" d="M25.9998 21.8143C23.6919 21.8143 21.8142 23.692 21.8142 25.9999C21.8142 28.3079 23.6919 30.1855 25.9998 30.1855C28.3077 30.1855 30.1854 28.3079 30.1854 25.9999C30.1854 23.692 28.3078 21.8143 25.9998 21.8143Z" fill="#B72B2B"/>
</g>
</g>
<g id="Group_3">
<g id="Group_4">
<path id="Vector_2" d="M51.5772 24.8739C51.4607 24.7407 48.6729 21.5729 44.1633 18.381C38.1216 14.1047 31.8408 11.8442 25.9998 11.8442C20.159 11.8442 13.8781 14.1046 7.83645 18.381C3.32696 21.5729 0.539069 24.7407 0.422679 24.8739C-0.140893 25.5188 -0.140893 26.481 0.422679 27.126C0.539171 27.2592 3.32697 30.427 7.83655 33.619C13.8782 37.8953 20.1591 40.1558 25.9999 40.1558C31.8409 40.1558 38.1217 37.8954 44.1634 33.619C48.673 30.4271 51.4609 27.2593 51.5773 27.126C52.1408 26.4811 52.1408 25.5188 51.5772 24.8739ZM25.9997 35.584C20.7152 35.584 16.4158 31.2847 16.4158 25.9999C16.4158 20.7152 20.7151 16.4159 25.9997 16.4159C31.2846 16.4159 35.5839 20.7152 35.5839 25.9999C35.5839 31.2847 31.2846 35.584 25.9997 35.584Z" fill="#B72B2B"/>
</g>
</g>
</g>
</svg>
