<svg width="114" height="114" viewBox="0 0 114 114" fill="none" xmlns="http://www.w3.org/2000/svg">
<g id="weather-svgrepo-com 1">
<path id="Vector" d="M97.2465 101.302C97.249 103.861 95.5406 105.938 93.4307 105.94L20.4209 106.011C18.311 106.013 16.5985 103.94 16.596 101.381L16.5095 12.827C16.507 10.2679 18.2153 8.19169 20.3252 8.18964L74.0446 8.13721L97.1767 29.8376L97.2465 101.302Z" fill="#896C89"/>
<path id="Vector_2" d="M20.4225 107.551H20.4165C17.4641 107.551 15.0592 104.783 15.0562 101.383L14.9697 12.829C14.9682 11.2348 15.4886 9.72253 16.4362 8.57126C17.4394 7.35148 18.8568 6.65137 20.3241 6.64989L74.0432 6.59723H74.0446C74.4364 6.59723 74.8131 6.7461 75.0982 7.01385L98.2305 28.7143C98.3837 28.8583 98.5059 29.0321 98.5896 29.225C98.6732 29.418 98.7166 29.626 98.7169 29.8363L98.7869 101.3C98.7899 104.704 96.3881 107.476 93.4334 107.48L20.4225 107.551ZM73.4363 9.67808L20.3271 9.72994C19.5819 9.73074 19.06 10.2308 18.8149 10.5285C18.3276 11.1204 18.0493 11.9574 18.0501 12.8259L18.1366 101.38C18.1381 103.055 19.1819 104.471 20.4167 104.471V106.011L20.419 104.471L93.4299 104.4C94.6654 104.399 95.7085 102.98 95.7069 101.303L95.6377 30.5056L73.4363 9.67808Z" fill="#4E6DC4"/>
<path id="Vector_3" d="M97.2465 30.4022L77.7509 30.4212C75.641 30.4233 73.9286 28.3504 73.9261 25.7913L73.9094 8.70245L97.2465 30.4022Z" fill="#D1D1D1"/>
<path id="Vector_4" d="M77.7526 31.9614H77.7474C74.795 31.9614 72.3894 29.194 72.3857 25.7927L72.3691 8.70431C72.3689 8.40438 72.4562 8.11088 72.6203 7.85987C72.7845 7.60886 73.0184 7.41126 73.2933 7.29133C73.8521 7.04614 74.5071 7.15591 74.9582 7.57482L98.2958 29.2746C98.5222 29.4852 98.6799 29.7591 98.7485 30.0606C98.817 30.3621 98.7932 30.6773 98.68 30.9651C98.5673 31.2531 98.3703 31.5004 98.1149 31.6748C97.8595 31.8491 97.5575 31.9425 97.2482 31.9427L77.7526 31.9614ZM75.453 12.2409L75.4657 25.7896C75.468 27.4651 76.5125 28.8811 77.7473 28.8811V30.4212L77.7496 28.8811L93.3325 28.866L75.453 12.2409Z" fill="#4E6DC4"/>
<path id="Vector_5" d="M52.7354 41.8901C53.4944 41.8295 54.0598 41.1664 53.9993 40.4071L53.7803 37.6601C53.7198 36.9008 53.0565 36.3356 52.2975 36.3961C51.5382 36.4566 50.9727 37.1198 51.0332 37.8791L51.2522 40.6261C51.3127 41.3854 51.9762 41.9506 52.7354 41.8901ZM63.1248 43.5726L64.9121 41.4757C65.4056 40.8962 65.3364 40.0269 64.7573 39.5334C64.1779 39.0397 63.309 39.109 62.8152 39.6882L61.0276 41.7854C60.534 42.3646 60.6033 43.2337 61.1824 43.7274C61.762 44.2212 62.6312 44.1519 63.1248 43.5726ZM37.1593 54.5585L39.9064 54.3395C40.6656 54.279 41.2308 53.6157 41.1703 52.8564C41.1097 52.0972 40.4466 51.5319 39.6874 51.5924L36.9403 51.8114C36.7599 51.8257 36.5841 51.8753 36.4229 51.9576C36.2617 52.0399 36.1183 52.1531 36.0009 52.2909C35.8835 52.4286 35.7944 52.5881 35.7387 52.7603C35.683 52.9325 35.6618 53.114 35.6763 53.2944C35.7368 54.0536 36.3999 54.619 37.1593 54.5585ZM65.5109 50.2055C65.7011 50.943 66.4518 51.3859 67.1891 51.1956L69.8575 50.5073C70.595 50.317 71.0376 49.5663 70.8474 48.8289C70.6572 48.0914 69.9067 47.6487 69.1692 47.8389L66.5007 48.5273C65.7635 48.7174 65.3206 49.4679 65.5109 50.2055ZM42.8044 45.4926C43.3835 45.9863 44.2527 45.917 44.7464 45.3378C45.2402 44.7586 45.171 43.8895 44.5915 43.3954L42.4947 41.6083C41.915 41.1145 41.0459 41.1838 40.5523 41.7631C40.0585 42.3422 40.1277 43.2114 40.7071 43.7051L42.8044 45.4926Z" fill="#4E6DC4"/>
<path id="Vector_6" d="M53.8803 48.3472C57.9735 48.4067 61.2976 51.4534 61.8739 55.3795C60.8454 55.159 59.7964 55.015 58.72 54.9994C53.9968 54.9308 49.5909 56.9042 46.4692 60.2978C45.8753 59.1419 45.5151 57.8448 45.5352 56.4534C45.6012 51.9099 49.3368 48.2812 53.8803 48.3472Z" fill="white"/>
<path id="Vector_7" d="M46.4694 61.8383C46.4011 61.8383 46.3319 61.8337 46.2627 61.8241C46.0169 61.7909 45.7828 61.6988 45.5802 61.5557C45.3777 61.4126 45.2127 61.2227 45.0993 61.0021C44.3443 59.5312 43.9728 57.9934 43.9954 56.4306C44.0721 51.1237 48.4517 46.8066 53.7578 46.8066C58.7045 46.8773 62.6976 50.3884 63.3977 55.1552C63.434 55.4013 63.4101 55.6525 63.3281 55.8873C63.2461 56.1221 63.1085 56.3336 62.9269 56.5036C62.5584 56.8487 62.0456 56.9879 61.5516 56.8856C60.5266 56.666 59.5934 56.5524 58.6978 56.5396L58.4827 56.5381C54.3761 56.5381 50.4107 58.2887 47.6027 61.3404C47.4586 61.4974 47.2835 61.6227 47.0884 61.7084C46.8933 61.7941 46.6825 61.8384 46.4694 61.8383ZM53.8564 49.8875C50.125 49.8875 47.1275 52.8429 47.0756 56.4758C47.0704 56.8313 47.0961 57.1865 47.1523 57.5376C50.3363 54.9221 54.3489 53.458 58.4827 53.458L58.7429 53.4594C59.0527 53.464 59.3648 53.4783 59.6814 53.5015C58.5834 51.356 56.3838 49.9242 53.8579 49.8874L53.8564 49.8875Z" fill="#4E6DC4"/>
<path id="Vector_8" d="M70.9956 77.4243C69.2719 77.3992 67.6918 76.8226 66.394 75.8821C63.9907 78.694 60.4444 80.4922 56.4565 80.4341C52.4685 80.3761 48.9759 78.4758 46.6554 75.5953C45.3339 76.4977 43.7347 77.0282 42.0109 77.0032C37.5637 76.9386 34.0119 73.2822 34.0766 68.8349C34.1412 64.3877 37.7976 60.836 42.2448 60.9006C43.0249 60.9119 43.7585 61.0705 44.4665 61.2884C44.7482 61.3741 45.0338 61.4414 45.2995 61.5554C45.7519 60.6999 46.3173 59.9185 46.941 59.1885C49.3348 56.3922 52.8616 54.6125 56.8308 54.6702C57.8498 54.685 58.8256 54.847 59.7692 55.0871C60.8284 55.354 61.8263 55.7493 62.7562 56.2663C65.081 57.5456 66.9778 59.5013 68.1544 61.8874C69.1067 61.5111 70.1446 61.3059 71.2297 61.3217C75.6769 61.3863 79.2286 65.0427 79.164 69.4899C79.0992 73.9372 75.4429 77.4889 70.9956 77.4243Z" fill="white"/>
<path id="Vector_9" d="M56.6455 81.9753L56.4335 81.9738C52.6179 81.9197 49.006 80.3269 46.3372 77.5611C45.0292 78.2086 43.5893 78.5452 42.1298 78.5447C39.4264 78.5056 37.032 77.4739 35.2468 75.6352C33.4624 73.7981 32.4997 71.3744 32.5367 68.8123C32.6126 63.6002 36.914 59.3596 42.1254 59.3596C42.9977 59.3709 43.761 59.4875 44.6018 59.7228C44.9417 59.2129 45.329 58.7046 45.7712 58.188C48.5227 54.9724 52.4858 53.1285 56.6428 53.1285L56.8533 53.13C57.9054 53.1459 58.9838 53.2977 60.1501 53.5947C61.3212 53.8888 62.449 54.3345 63.5047 54.9205C65.7411 56.1508 67.5843 57.9068 68.8936 60.0424C69.6207 59.8685 70.3658 59.7806 71.1135 59.7807C76.54 59.8582 80.7804 64.2235 80.7045 69.5116C80.6286 74.7244 76.3271 78.9657 71.115 78.9657C69.4906 78.9416 67.9949 78.5611 66.6556 77.8542C63.961 80.4879 60.3807 81.9753 56.6455 81.9753ZM46.6544 74.0552C47.1056 74.0552 47.5516 74.253 47.8546 74.629C50.0001 77.2919 53.1427 78.8455 56.4777 78.8936L56.6454 78.8951C59.9158 78.8951 63.0427 77.4318 65.2227 74.881C65.7439 74.2718 66.647 74.1628 67.2975 74.6351C68.3977 75.4322 69.6844 75.8645 71.0176 75.8841H71.0191C74.6535 75.8841 77.5728 73.0062 77.6239 69.4674C77.6757 65.8773 74.7971 62.9137 71.2071 62.8618H71.201C70.2919 62.8618 69.4887 63.0159 68.7194 63.3198C68.3598 63.4617 67.96 63.4632 67.5994 63.324C67.2387 63.1848 66.9436 62.9152 66.7725 62.5685C65.74 60.4734 64.0939 58.7611 62.0139 57.6159C61.1893 57.1584 60.3085 56.8106 59.3939 56.5811C58.4592 56.3428 57.6155 56.2224 56.8077 56.2104L56.6423 56.2089C53.3862 56.2089 50.2767 57.6603 48.111 60.1907C47.4989 60.9059 47.0243 61.588 46.6604 62.276C46.2843 62.9851 45.4271 63.2867 44.6901 62.9701C44.557 62.913 44.4156 62.8768 44.2743 62.8369L44.0178 62.7617C43.3298 62.5497 42.7604 62.4481 42.222 62.4406H42.2213C38.5869 62.4406 35.6676 65.3192 35.6165 68.8574C35.591 70.5967 36.2444 72.2421 37.4566 73.4897C38.668 74.7365 40.2932 75.4381 42.0333 75.463H42.037C43.432 75.463 44.6953 75.0689 45.7865 74.3237C46.0421 74.1485 46.3447 74.0549 46.6544 74.0552Z" fill="#4E6DC4"/>
</g>
</svg>
